<mxfile host="app.diagrams.net" agent="Mozilla/5.0 (Macintosh; Intel Mac OS X 10_15_7) AppleWebKit/537.36 (KHTML, like Gecko) Chrome/136.0.0.0 Safari/537.36" version="27.1.1">
  <diagram name="Page-1" id="bDEczoMecPKZpXYJFxnP">
    <mxGraphModel dx="931" dy="571" grid="1" gridSize="10" guides="1" tooltips="1" connect="1" arrows="1" fold="1" page="1" pageScale="1" pageWidth="850" pageHeight="1100" math="0" shadow="0">
      <root>
        <mxCell id="0" />
        <mxCell id="1" parent="0" />
        <mxCell id="HxSxNdAtsGTj_Mpq3BB7-1" style="edgeStyle=orthogonalEdgeStyle;rounded=0;orthogonalLoop=1;jettySize=auto;html=1;exitX=1;exitY=0.5;exitDx=0;exitDy=0;entryX=0.5;entryY=0;entryDx=0;entryDy=0;" edge="1" parent="1" source="HxSxNdAtsGTj_Mpq3BB7-2" target="HxSxNdAtsGTj_Mpq3BB7-19">
          <mxGeometry relative="1" as="geometry" />
        </mxCell>
        <mxCell id="HxSxNdAtsGTj_Mpq3BB7-2" value="Пациент" style="rounded=1;whiteSpace=wrap;html=1;fillColor=#f8cecc;strokeColor=#b85450;" vertex="1" parent="1">
          <mxGeometry x="42" y="41" width="120" height="60" as="geometry" />
        </mxCell>
        <mxCell id="HxSxNdAtsGTj_Mpq3BB7-3" style="edgeStyle=orthogonalEdgeStyle;rounded=0;orthogonalLoop=1;jettySize=auto;html=1;exitX=0.5;exitY=1;exitDx=0;exitDy=0;" edge="1" parent="1" source="HxSxNdAtsGTj_Mpq3BB7-6" target="HxSxNdAtsGTj_Mpq3BB7-15">
          <mxGeometry relative="1" as="geometry" />
        </mxCell>
        <mxCell id="HxSxNdAtsGTj_Mpq3BB7-5" style="edgeStyle=orthogonalEdgeStyle;rounded=0;orthogonalLoop=1;jettySize=auto;html=1;exitX=0;exitY=0.5;exitDx=0;exitDy=0;entryX=0.5;entryY=0;entryDx=0;entryDy=0;" edge="1" parent="1" source="HxSxNdAtsGTj_Mpq3BB7-6" target="HxSxNdAtsGTj_Mpq3BB7-10">
          <mxGeometry relative="1" as="geometry" />
        </mxCell>
        <mxCell id="HxSxNdAtsGTj_Mpq3BB7-28" style="edgeStyle=orthogonalEdgeStyle;rounded=0;orthogonalLoop=1;jettySize=auto;html=1;exitX=0;exitY=1;exitDx=0;exitDy=0;entryX=0.5;entryY=0;entryDx=0;entryDy=0;" edge="1" parent="1" source="HxSxNdAtsGTj_Mpq3BB7-6" target="HxSxNdAtsGTj_Mpq3BB7-25">
          <mxGeometry relative="1" as="geometry" />
        </mxCell>
        <mxCell id="HxSxNdAtsGTj_Mpq3BB7-6" value="Врач" style="rounded=1;whiteSpace=wrap;html=1;fillColor=#f8cecc;strokeColor=#b85450;" vertex="1" parent="1">
          <mxGeometry x="559" y="41" width="120" height="60" as="geometry" />
        </mxCell>
        <mxCell id="HxSxNdAtsGTj_Mpq3BB7-26" style="edgeStyle=orthogonalEdgeStyle;rounded=0;orthogonalLoop=1;jettySize=auto;html=1;entryX=0.5;entryY=1;entryDx=0;entryDy=0;" edge="1" parent="1" source="HxSxNdAtsGTj_Mpq3BB7-8" target="HxSxNdAtsGTj_Mpq3BB7-12">
          <mxGeometry relative="1" as="geometry" />
        </mxCell>
        <mxCell id="HxSxNdAtsGTj_Mpq3BB7-8" value="Инженер" style="rounded=1;whiteSpace=wrap;html=1;fillColor=#f8cecc;strokeColor=#b85450;" vertex="1" parent="1">
          <mxGeometry x="295" y="261" width="120" height="60" as="geometry" />
        </mxCell>
        <mxCell id="HxSxNdAtsGTj_Mpq3BB7-27" style="edgeStyle=orthogonalEdgeStyle;rounded=0;orthogonalLoop=1;jettySize=auto;html=1;exitX=0.5;exitY=1;exitDx=0;exitDy=0;entryX=1;entryY=0.5;entryDx=0;entryDy=0;" edge="1" parent="1" source="HxSxNdAtsGTj_Mpq3BB7-10" target="HxSxNdAtsGTj_Mpq3BB7-8">
          <mxGeometry relative="1" as="geometry" />
        </mxCell>
        <mxCell id="HxSxNdAtsGTj_Mpq3BB7-10" value="Подтвердить&lt;div&gt;ТСР&lt;/div&gt;" style="ellipse;whiteSpace=wrap;html=1;aspect=fixed;fillColor=#dae8fc;strokeColor=#6c8ebf;fontSize=11;" vertex="1" parent="1">
          <mxGeometry x="384" y="139" width="80" height="80" as="geometry" />
        </mxCell>
        <mxCell id="HxSxNdAtsGTj_Mpq3BB7-11" style="edgeStyle=orthogonalEdgeStyle;rounded=0;orthogonalLoop=1;jettySize=auto;html=1;exitX=0.5;exitY=0;exitDx=0;exitDy=0;entryX=0.5;entryY=0;entryDx=0;entryDy=0;" edge="1" parent="1" source="HxSxNdAtsGTj_Mpq3BB7-12" target="HxSxNdAtsGTj_Mpq3BB7-6">
          <mxGeometry relative="1" as="geometry" />
        </mxCell>
        <mxCell id="HxSxNdAtsGTj_Mpq3BB7-12" value="Одобрить&lt;div&gt;выбранное&lt;/div&gt;&lt;div&gt;ТСР&lt;/div&gt;" style="ellipse;whiteSpace=wrap;html=1;aspect=fixed;fillColor=#dae8fc;strokeColor=#6c8ebf;" vertex="1" parent="1">
          <mxGeometry x="274" y="139" width="80" height="80" as="geometry" />
        </mxCell>
        <mxCell id="HxSxNdAtsGTj_Mpq3BB7-31" style="edgeStyle=orthogonalEdgeStyle;rounded=0;orthogonalLoop=1;jettySize=auto;html=1;exitX=0.5;exitY=0;exitDx=0;exitDy=0;entryX=1;entryY=0.25;entryDx=0;entryDy=0;" edge="1" parent="1" source="HxSxNdAtsGTj_Mpq3BB7-13" target="HxSxNdAtsGTj_Mpq3BB7-6">
          <mxGeometry relative="1" as="geometry" />
        </mxCell>
        <mxCell id="HxSxNdAtsGTj_Mpq3BB7-13" value="Выдача&lt;div&gt;&amp;nbsp;списка&lt;div&gt;рекомендованных&lt;/div&gt;&lt;div&gt;ТСР&lt;/div&gt;&lt;/div&gt;" style="ellipse;whiteSpace=wrap;html=1;aspect=fixed;fillColor=#dae8fc;strokeColor=#6c8ebf;" vertex="1" parent="1">
          <mxGeometry x="720" y="139" width="80" height="80" as="geometry" />
        </mxCell>
        <mxCell id="HxSxNdAtsGTj_Mpq3BB7-32" style="edgeStyle=orthogonalEdgeStyle;rounded=0;orthogonalLoop=1;jettySize=auto;html=1;exitX=0.5;exitY=1;exitDx=0;exitDy=0;entryX=0.25;entryY=0;entryDx=0;entryDy=0;" edge="1" parent="1" source="HxSxNdAtsGTj_Mpq3BB7-15" target="HxSxNdAtsGTj_Mpq3BB7-16">
          <mxGeometry relative="1" as="geometry" />
        </mxCell>
        <mxCell id="HxSxNdAtsGTj_Mpq3BB7-15" value="Ввод клинических&lt;div&gt;данных&lt;/div&gt;&lt;div&gt;пациента&lt;/div&gt;" style="ellipse;whiteSpace=wrap;html=1;aspect=fixed;fillColor=#dae8fc;strokeColor=#6c8ebf;" vertex="1" parent="1">
          <mxGeometry x="606" y="139" width="80" height="80" as="geometry" />
        </mxCell>
        <mxCell id="HxSxNdAtsGTj_Mpq3BB7-30" style="edgeStyle=orthogonalEdgeStyle;rounded=0;orthogonalLoop=1;jettySize=auto;html=1;exitX=0.75;exitY=0;exitDx=0;exitDy=0;" edge="1" parent="1" source="HxSxNdAtsGTj_Mpq3BB7-16">
          <mxGeometry relative="1" as="geometry">
            <mxPoint x="760" y="220" as="targetPoint" />
          </mxGeometry>
        </mxCell>
        <mxCell id="HxSxNdAtsGTj_Mpq3BB7-33" style="edgeStyle=orthogonalEdgeStyle;rounded=0;orthogonalLoop=1;jettySize=auto;html=1;exitX=0.25;exitY=1;exitDx=0;exitDy=0;entryX=0.5;entryY=0;entryDx=0;entryDy=0;" edge="1" parent="1" source="HxSxNdAtsGTj_Mpq3BB7-16" target="HxSxNdAtsGTj_Mpq3BB7-24">
          <mxGeometry relative="1" as="geometry" />
        </mxCell>
        <mxCell id="HxSxNdAtsGTj_Mpq3BB7-34" style="edgeStyle=orthogonalEdgeStyle;rounded=0;orthogonalLoop=1;jettySize=auto;html=1;exitX=0.75;exitY=1;exitDx=0;exitDy=0;entryX=0.5;entryY=0;entryDx=0;entryDy=0;" edge="1" parent="1" source="HxSxNdAtsGTj_Mpq3BB7-16" target="HxSxNdAtsGTj_Mpq3BB7-23">
          <mxGeometry relative="1" as="geometry" />
        </mxCell>
        <mxCell id="HxSxNdAtsGTj_Mpq3BB7-16" value="ИИ подбора ТСР" style="rounded=1;whiteSpace=wrap;html=1;fillColor=#fff2cc;strokeColor=#d6b656;" vertex="1" parent="1">
          <mxGeometry x="615" y="261" width="120" height="60" as="geometry" />
        </mxCell>
        <mxCell id="HxSxNdAtsGTj_Mpq3BB7-17" value="Журнал ТСР" style="rounded=1;whiteSpace=wrap;html=1;fillColor=#fff2cc;strokeColor=#d6b656;" vertex="1" parent="1">
          <mxGeometry x="290" y="450" width="120" height="60" as="geometry" />
        </mxCell>
        <mxCell id="HxSxNdAtsGTj_Mpq3BB7-18" style="edgeStyle=orthogonalEdgeStyle;rounded=0;orthogonalLoop=1;jettySize=auto;html=1;exitX=1;exitY=0;exitDx=0;exitDy=0;entryX=0;entryY=0.25;entryDx=0;entryDy=0;" edge="1" parent="1" source="HxSxNdAtsGTj_Mpq3BB7-19" target="HxSxNdAtsGTj_Mpq3BB7-6">
          <mxGeometry relative="1" as="geometry">
            <Array as="points">
              <mxPoint x="267" y="56" />
            </Array>
          </mxGeometry>
        </mxCell>
        <mxCell id="HxSxNdAtsGTj_Mpq3BB7-19" value="Передать&lt;div&gt;анкету/&lt;/div&gt;&lt;div&gt;жалобу&lt;/div&gt;" style="ellipse;whiteSpace=wrap;html=1;aspect=fixed;fillColor=#dae8fc;strokeColor=#6c8ebf;" vertex="1" parent="1">
          <mxGeometry x="161" y="139" width="80" height="80" as="geometry" />
        </mxCell>
        <mxCell id="HxSxNdAtsGTj_Mpq3BB7-21" value="БД&lt;div&gt;пациентов&lt;/div&gt;" style="shape=cylinder3;whiteSpace=wrap;html=1;boundedLbl=1;backgroundOutline=1;size=15;fillColor=#d5e8d4;strokeColor=#82b366;" vertex="1" parent="1">
          <mxGeometry x="567" y="480" width="60" height="80" as="geometry" />
        </mxCell>
        <mxCell id="HxSxNdAtsGTj_Mpq3BB7-22" value="База&lt;div&gt;знаний&lt;/div&gt;" style="shape=cylinder3;whiteSpace=wrap;html=1;boundedLbl=1;backgroundOutline=1;size=15;fillColor=#d5e8d4;strokeColor=#82b366;" vertex="1" parent="1">
          <mxGeometry x="697" y="480" width="60" height="80" as="geometry" />
        </mxCell>
        <mxCell id="HxSxNdAtsGTj_Mpq3BB7-23" value="Запрос&lt;div&gt;рекомендаций&lt;/div&gt;" style="ellipse;whiteSpace=wrap;html=1;aspect=fixed;fillColor=#dae8fc;strokeColor=#6c8ebf;" vertex="1" parent="1">
          <mxGeometry x="677" y="360" width="80" height="80" as="geometry" />
        </mxCell>
        <mxCell id="HxSxNdAtsGTj_Mpq3BB7-24" value="Сохранение&lt;div&gt;данных&lt;/div&gt;&lt;div&gt;пациента&lt;/div&gt;" style="ellipse;whiteSpace=wrap;html=1;aspect=fixed;fillColor=#dae8fc;strokeColor=#6c8ebf;" vertex="1" parent="1">
          <mxGeometry x="557" y="360" width="80" height="80" as="geometry" />
        </mxCell>
        <mxCell id="HxSxNdAtsGTj_Mpq3BB7-29" style="edgeStyle=orthogonalEdgeStyle;rounded=0;orthogonalLoop=1;jettySize=auto;html=1;exitX=0.5;exitY=1;exitDx=0;exitDy=0;entryX=0.5;entryY=0;entryDx=0;entryDy=0;" edge="1" parent="1" source="HxSxNdAtsGTj_Mpq3BB7-25" target="HxSxNdAtsGTj_Mpq3BB7-17">
          <mxGeometry relative="1" as="geometry" />
        </mxCell>
        <mxCell id="HxSxNdAtsGTj_Mpq3BB7-25" value="&amp;nbsp;Сохранить&lt;div&gt;финальное&lt;/div&gt;&lt;div&gt;заключение&lt;/div&gt;&lt;div&gt;по ТСР&lt;/div&gt;" style="ellipse;whiteSpace=wrap;html=1;aspect=fixed;fillColor=#dae8fc;strokeColor=#6c8ebf;" vertex="1" parent="1">
          <mxGeometry x="495" y="139" width="80" height="80" as="geometry" />
        </mxCell>
        <mxCell id="HxSxNdAtsGTj_Mpq3BB7-35" style="edgeStyle=orthogonalEdgeStyle;rounded=0;orthogonalLoop=1;jettySize=auto;html=1;exitX=0.5;exitY=1;exitDx=0;exitDy=0;entryX=0.333;entryY=0;entryDx=0;entryDy=0;entryPerimeter=0;" edge="1" parent="1" source="HxSxNdAtsGTj_Mpq3BB7-23" target="HxSxNdAtsGTj_Mpq3BB7-22">
          <mxGeometry relative="1" as="geometry" />
        </mxCell>
        <mxCell id="HxSxNdAtsGTj_Mpq3BB7-36" style="edgeStyle=orthogonalEdgeStyle;rounded=0;orthogonalLoop=1;jettySize=auto;html=1;exitX=0.5;exitY=1;exitDx=0;exitDy=0;entryX=0.5;entryY=0;entryDx=0;entryDy=0;entryPerimeter=0;" edge="1" parent="1" source="HxSxNdAtsGTj_Mpq3BB7-24" target="HxSxNdAtsGTj_Mpq3BB7-21">
          <mxGeometry relative="1" as="geometry" />
        </mxCell>
      </root>
    </mxGraphModel>
  </diagram>
</mxfile>
